<svg width="32" height="32" viewBox="0 0 32 32" fill="none" xmlns="http://www.w3.org/2000/svg">
<g clip-path="url(#clip0_1_508)">
<g clip-path="url(#clip1_1_508)">
<path d="M26.061 19.061L17.061 28.061C16.7792 28.3427 16.397 28.5009 15.9985 28.5009C15.6 28.5009 15.2178 28.3427 14.936 28.061L5.936 19.061C5.79115 18.9227 5.67541 18.7568 5.59558 18.5731C5.51575 18.3894 5.47344 18.1916 5.47114 17.9913C5.46883 17.7911 5.50658 17.5923 5.58216 17.4069C5.65774 17.2214 5.76963 17.0529 5.91126 16.9113C6.05288 16.7696 6.22139 16.6577 6.40687 16.5822C6.59234 16.5066 6.79106 16.4688 6.99134 16.4711C7.19161 16.4734 7.3894 16.5158 7.5731 16.5956C7.75679 16.6754 7.92267 16.7912 8.061 16.936L14.5 23.375V5C14.5 4.60218 14.658 4.22064 14.9393 3.93934C15.2206 3.65804 15.6022 3.5 16 3.5C16.3978 3.5 16.7794 3.65804 17.0607 3.93934C17.342 4.22064 17.5 4.60218 17.5 5V23.375L23.939 16.935C24.2208 16.6532 24.603 16.4949 25.0015 16.4949C25.4 16.4949 25.7822 16.6532 26.064 16.935C26.3458 17.2168 26.5041 17.599 26.5041 17.9975C26.5041 18.396 26.3458 18.7782 26.064 19.06L26.061 19.061Z" fill="#1A1A1A"/>
</g>
</g>
<defs>
<clipPath id="clip0_1_508">
<rect width="32" height="32" fill="white"/>
</clipPath>
<clipPath id="clip1_1_508">
<rect width="32" height="32" fill="white"/>
</clipPath>
</defs>
</svg>
