<svg width="176" height="32" viewBox="0 0 176 32" fill="none" xmlns="http://www.w3.org/2000/svg">
<g clip-path="url(#clip0_1_1176)">
<g clip-path="url(#clip1_1_1176)">
<g clip-path="url(#clip2_1_1176)">
<mask id="mask0_1_1176" style="mask-type:luminance" maskUnits="userSpaceOnUse" x="0" y="0" width="32" height="32">
<path d="M0 0H32V32H0V0Z" fill="white"/>
</mask>
<g mask="url(#mask0_1_1176)">
<path d="M16 5V27M6 10L26 22M6 22L26 10" stroke="#666666" stroke-width="2" stroke-linecap="round" stroke-linejoin="round"/>
</g>
<mask id="mask1_1_1176" style="mask-type:luminance" maskUnits="userSpaceOnUse" x="72" y="0" width="32" height="32">
<path d="M72 0H104V32H72V0Z" fill="white"/>
</mask>
<g mask="url(#mask1_1_1176)">
<path d="M88 5V27M78 10L98 22M78 22L98 10" stroke="#666666" stroke-width="2" stroke-linecap="round" stroke-linejoin="round"/>
</g>
<mask id="mask2_1_1176" style="mask-type:luminance" maskUnits="userSpaceOnUse" x="144" y="0" width="32" height="32">
<path d="M144 0H176V32H144V0Z" fill="white"/>
</mask>
<g mask="url(#mask2_1_1176)">
<path d="M160 5V27M150 10L170 22M150 22L170 10" stroke="#666666" stroke-width="2" stroke-linecap="round" stroke-linejoin="round"/>
</g>
</g>
</g>
</g>
<defs>
<clipPath id="clip0_1_1176">
<rect width="176" height="32" fill="white"/>
</clipPath>
<clipPath id="clip1_1_1176">
<rect width="176" height="32" fill="white"/>
</clipPath>
<clipPath id="clip2_1_1176">
<rect width="176" height="32" fill="white"/>
</clipPath>
</defs>
</svg>
