<svg width="24" height="24" viewBox="0 0 24 24" fill="none" xmlns="http://www.w3.org/2000/svg">
<path d="M3.7041 9.7961L11.2041 17.2961C11.3086 17.4009 11.4328 17.4842 11.5696 17.5409C11.7063 17.5977 11.8529 17.627 12.001 17.627C12.149 17.627 12.2957 17.5977 12.4324 17.5409C12.5691 17.4842 12.6933 17.4009 12.7979 17.2961L20.2978 9.7961C20.5092 9.5847 20.6279 9.2981 20.6279 8.9992C20.6279 8.7003 20.5092 8.4137 20.2978 8.2023C20.0865 7.991 19.7999 7.8722 19.501 7.8722C19.2021 7.8722 18.9154 7.991 18.7041 8.2023L12 14.9064L5.296 8.2014C5.0846 7.99 4.798 7.8713 4.4991 7.8713C4.2002 7.8713 3.9136 7.99 3.7022 8.2014C3.4909 8.4127 3.3721 8.6994 3.3721 8.9982C3.3721 9.2971 3.4909 9.5838 3.7022 9.7951L3.7041 9.7961Z" fill="white"/>
</svg>
