<svg width="24" height="24" viewBox="0 0 24 24" fill="none" xmlns="http://www.w3.org/2000/svg">
<path d="M20.2959 14.2039L12.7959 6.70394C12.6914 6.59906 12.5672 6.51585 12.4304 6.45907C12.2937 6.40228 12.1471 6.37305 11.999 6.37305C11.851 6.37305 11.7043 6.40228 11.5676 6.45907C11.4309 6.51585 11.3067 6.59906 11.2021 6.70394L3.70215 14.2039C3.4908 14.4153 3.37207 14.7019 3.37207 15.0008C3.37207 15.2997 3.4908 15.5863 3.70215 15.7977C3.91349 16.009 4.20014 16.1278 4.49902 16.1278C4.79791 16.1278 5.08455 16.009 5.2959 15.7977L12 9.09363L18.704 15.7986C18.9154 16.01 19.202 16.1287 19.5009 16.1287C19.7998 16.1287 20.0864 16.01 20.2978 15.7986C20.5091 15.5873 20.6279 15.3006 20.6279 15.0018C20.6279 14.7029 20.5091 14.4162 20.2978 14.2049L20.2959 14.2039Z" fill="white"/>
</svg>
