<svg width="118" height="90" viewBox="0 0 118 90" fill="none" xmlns="http://www.w3.org/2000/svg">
<g filter="url(#filter0_d_1_463)">
<g clip-path="url(#clip0_1_463)">
<rect x="18" y="8" width="82" height="54" rx="27" fill="url(#paint0_linear_1_463)"/>
<g clip-path="url(#clip1_1_463)">
<g clip-path="url(#clip2_1_463)">
<path fill-rule="evenodd" clip-rule="evenodd" d="M55.938 23.9871C56.712 23.2141 57.788 22.8701 59 22.8701C60.211 22.8701 61.288 23.2141 62.062 23.9871C62.835 24.7611 63.179 25.8381 63.179 27.0491C63.179 28.2601 62.836 29.3371 62.062 30.1111C61.288 30.8851 60.21 31.2281 59 31.2281C57.789 31.2281 56.712 30.8851 55.938 30.1111C55.164 29.3371 54.821 28.2611 54.821 27.0501C54.821 25.8401 55.164 24.7621 55.938 23.9881V23.9871ZM59.001 35.1071C58.061 34.2161 56.861 33.2831 55.574 32.7941C54.848 32.5191 54.077 32.3771 53.301 32.4801C52.518 32.5841 51.761 32.9331 51.069 33.5901C49.904 34.6971 49.609 36.0881 49.869 37.5061C50.124 38.9011 50.912 40.3321 51.919 41.6211C52.9287 42.9011 54.1079 44.0379 55.424 45.0001C56.652 45.8921 57.91 46.5421 58.924 46.7101C58.974 46.7181 59.025 46.7181 59.075 46.7101C60.089 46.5421 61.347 45.8921 62.575 45.0001C63.8919 44.0377 65.0717 42.9006 66.082 41.6201C67.088 40.3321 67.876 38.9011 68.132 37.5061C68.39 36.0881 68.097 34.6971 66.931 33.5901C66.239 32.9331 65.481 32.5841 64.699 32.4801C63.923 32.3771 63.152 32.5191 62.426 32.7941C61.14 33.2841 59.939 34.2161 59 35.1071H59.001Z" fill="url(#paint1_linear_1_463)"/>
</g>
</g>
<rect x="18.5" y="8.5" width="81" height="53" rx="26.5" stroke="#04558F"/>
</g>
</g>
<defs>
<filter id="filter0_d_1_463" x="0" y="0" width="118" height="90" filterUnits="userSpaceOnUse" color-interpolation-filters="sRGB">
<feFlood flood-opacity="0" result="BackgroundImageFix"/>
<feColorMatrix in="SourceAlpha" type="matrix" values="0 0 0 0 0 0 0 0 0 0 0 0 0 0 0 0 0 0 127 0" result="hardAlpha"/>
<feOffset dy="10"/>
<feGaussianBlur stdDeviation="9"/>
<feComposite in2="hardAlpha" operator="out"/>
<feColorMatrix type="matrix" values="0 0 0 0 1 0 0 0 0 0.266667 0 0 0 0 0 0 0 0 0.3 0"/>
<feBlend mode="normal" in2="BackgroundImageFix" result="effect1_dropShadow_1_463"/>
<feBlend mode="normal" in="SourceGraphic" in2="effect1_dropShadow_1_463" result="shape"/>
</filter>
<linearGradient id="paint0_linear_1_463" x1="59" y1="8" x2="59" y2="62" gradientUnits="userSpaceOnUse">
<stop stop-color="#04558F"/>
<stop offset="0.496089" stop-color="#04558F"/>
<stop offset="0.605769" stop-color="#04558F"/>
<stop offset="0.631318" stop-color="#04558F"/>
<stop offset="1" stop-color="#04558F"/>
</linearGradient>
<linearGradient id="paint1_linear_1_463" x1="59.001" y1="22.8701" x2="59.001" y2="46.7151" gradientUnits="userSpaceOnUse">
<stop stop-color="white"/>
<stop offset="1" stop-color="white" stop-opacity="0.2"/>
</linearGradient>
<clipPath id="clip0_1_463">
<rect x="18" y="8" width="82" height="54" rx="27" fill="white"/>
</clipPath>
<clipPath id="clip1_1_463">
<rect width="26" height="26" fill="white" transform="translate(46 22)"/>
</clipPath>
<clipPath id="clip2_1_463">
<rect width="26" height="26" fill="white" transform="translate(46 22)"/>
</clipPath>
</defs>
</svg>
