<svg width="25" height="25" viewBox="0 0 25 25" fill="none" xmlns="http://www.w3.org/2000/svg">
<g clip-path="url(#clip0_1_8)">
<g clip-path="url(#clip1_1_8)">
<path d="M12.5 2.34399C10.4913 2.34399 8.52777 2.93963 6.85763 4.05559C5.18748 5.17154 3.88576 6.7577 3.11708 8.61346C2.3484 10.4692 2.14727 12.5113 2.53915 14.4813C2.93102 16.4514 3.89828 18.261 5.31862 19.6814C6.73897 21.1017 8.54859 22.069 10.5187 22.4608C12.4887 22.8527 14.5308 22.6516 16.3865 21.8829C18.2423 21.1142 19.8284 19.8125 20.9444 18.1424C22.0604 16.4722 22.656 14.5087 22.656 12.5C22.6528 9.80743 21.5818 7.22606 19.6779 5.32213C17.7739 3.41819 15.1926 2.34717 12.5 2.34399ZM21.057 11.719H17.167C16.992 8.15299 15.619 5.63199 14.493 4.14099C16.2414 4.56068 17.8146 5.51711 18.992 6.87613C20.1693 8.23516 20.8918 9.92861 21.058 11.719H21.057ZM9.397 13.28H15.602C15.377 17.344 13.432 19.834 12.5 20.8C11.567 19.833 9.623 17.343 9.397 13.28ZM9.397 11.718C9.623 7.65399 11.568 5.16399 12.5 4.19799C13.433 5.16799 15.377 7.65799 15.602 11.718H9.397ZM10.507 4.13999C9.381 5.62999 8.007 8.15199 7.833 11.718H3.943C4.10916 9.92774 4.83146 8.23438 6.00862 6.87538C7.18578 5.51637 8.75877 4.55987 10.507 4.13999ZM3.942 13.28H7.833C8.011 16.846 9.381 19.367 10.507 20.858C8.75865 20.4382 7.18553 19.4817 6.0082 18.1227C4.83087 16.7637 4.10837 15.0703 3.942 13.28ZM14.49 20.86C15.616 19.37 16.986 16.848 17.164 13.282H21.054C20.8881 15.0717 20.1664 16.7647 18.99 18.1236C17.8136 19.4826 16.2415 20.4394 14.494 20.86H14.49Z" fill="#04558F" fill-opacity="0.6"/>
</g>
</g>
<defs>
<clipPath id="clip0_1_8">
<rect width="25" height="25" fill="white"/>
</clipPath>
<clipPath id="clip1_1_8">
<rect width="25" height="25" fill="white"/>
</clipPath>
</defs>
</svg>
