<svg width="118" height="90" viewBox="0 0 118 90" fill="none" xmlns="http://www.w3.org/2000/svg">
<g filter="url(#filter0_d_1_431)">
<g clip-path="url(#clip0_1_431)">
<rect x="18" y="8" width="82" height="54" rx="27" fill="url(#paint0_linear_1_431)"/>
<g clip-path="url(#clip1_1_431)">
<g clip-path="url(#clip2_1_431)">
<g clip-path="url(#clip3_1_431)">
<mask id="mask0_1_431" style="mask-type:luminance" maskUnits="userSpaceOnUse" x="46" y="22" width="26" height="26">
<path d="M46 22H72V48H46V22Z" fill="white"/>
</mask>
<g mask="url(#mask0_1_431)">
<path fill-rule="evenodd" clip-rule="evenodd" d="M59.253 23.0779C60.379 21.7999 62.372 21.8379 63.689 23.0029C65.038 24.1959 65.298 26.2309 64.095 27.4959L58.232 33.6659C58.1742 33.7267 58.102 33.7718 58.022 33.7969L54.382 34.9419C53.897 35.0939 53.422 34.9279 53.106 34.6419C52.791 34.3559 52.58 33.8989 52.686 33.4019L53.463 29.7439C53.4806 29.6605 53.5196 29.583 53.576 29.5189L59.253 23.0789V23.0779ZM58.717 36.0119C59.173 35.8679 59.585 35.6119 59.914 35.2649L63.231 31.7749H68.1C69.507 31.7749 70.628 32.8069 70.935 34.0769L70.967 34.2059C71.251 35.3729 71.536 36.5429 71.536 39.8869C71.536 43.2319 71.251 44.4019 70.966 45.5689L70.936 45.6989C70.628 46.9679 69.507 47.9999 68.1 47.9999H49.9C48.494 47.9999 47.368 46.9689 47.07 45.6889L47.031 45.5239C46.75 44.3239 46.464 43.1069 46.464 39.8869C46.464 36.6679 46.75 35.4519 47.031 34.2509L47.07 34.0859C47.368 32.8059 48.494 31.7749 49.9 31.7749H50.658L50.415 32.9179C50.105 34.3709 50.739 35.6279 51.545 36.3609C52.352 37.0929 53.663 37.6009 55.077 37.1559L58.717 36.0119ZM62.069 37.9269C62.069 37.2869 62.589 36.7669 63.229 36.7669H66.501C66.8086 36.7669 67.1037 36.8892 67.3212 37.1067C67.5388 37.3242 67.661 37.6193 67.661 37.9269C67.661 38.2346 67.5388 38.5296 67.3212 38.7472C67.1037 38.9647 66.8086 39.0869 66.501 39.0869H63.229C62.9213 39.0869 62.6263 38.9647 62.4087 38.7472C62.1912 38.5296 62.069 38.2346 62.069 37.9269ZM59.958 41.9319C59.6502 41.9319 59.355 42.0542 59.1374 42.2718C58.9198 42.4895 58.7975 42.7847 58.7975 43.0924C58.7975 43.4002 58.9198 43.6954 59.1374 43.913C59.355 44.1307 59.6502 44.2529 59.958 44.2529H66.5C66.8078 44.2529 67.1029 44.1307 67.3206 43.913C67.5382 43.6954 67.6605 43.4002 67.6605 43.0924C67.6605 42.7847 67.5382 42.4895 67.3206 42.2718C67.1029 42.0542 66.8078 41.9319 66.5 41.9319H59.957H59.958Z" fill="url(#paint1_linear_1_431)"/>
</g>
</g>
</g>
</g>
<rect x="18.5" y="8.5" width="81" height="53" rx="26.5" stroke="#04558F"/>
</g>
</g>
<defs>
<filter id="filter0_d_1_431" x="0" y="0" width="118" height="90" filterUnits="userSpaceOnUse" color-interpolation-filters="sRGB">
<feFlood flood-opacity="0" result="BackgroundImageFix"/>
<feColorMatrix in="SourceAlpha" type="matrix" values="0 0 0 0 0 0 0 0 0 0 0 0 0 0 0 0 0 0 127 0" result="hardAlpha"/>
<feOffset dy="10"/>
<feGaussianBlur stdDeviation="9"/>
<feComposite in2="hardAlpha" operator="out"/>
<feColorMatrix type="matrix" values="0 0 0 0 1 0 0 0 0 0.266667 0 0 0 0 0 0 0 0 0.3 0"/>
<feBlend mode="normal" in2="BackgroundImageFix" result="effect1_dropShadow_1_431"/>
<feBlend mode="normal" in="SourceGraphic" in2="effect1_dropShadow_1_431" result="shape"/>
</filter>
<linearGradient id="paint0_linear_1_431" x1="59" y1="8" x2="59" y2="62" gradientUnits="userSpaceOnUse">
<stop stop-color="#04558F"/>
<stop offset="0.496089" stop-color="#04558F"/>
<stop offset="0.605769" stop-color="#04558F"/>
<stop offset="0.631318" stop-color="#04558F"/>
<stop offset="1" stop-color="#04558F"/>
</linearGradient>
<linearGradient id="paint1_linear_1_431" x1="59" y1="22.1239" x2="59" y2="47.9999" gradientUnits="userSpaceOnUse">
<stop stop-color="white"/>
<stop offset="1" stop-color="white" stop-opacity="0.2"/>
</linearGradient>
<clipPath id="clip0_1_431">
<rect x="18" y="8" width="82" height="54" rx="27" fill="white"/>
</clipPath>
<clipPath id="clip1_1_431">
<rect width="26" height="26" fill="white" transform="translate(46 22)"/>
</clipPath>
<clipPath id="clip2_1_431">
<rect width="26" height="26" fill="white" transform="translate(46 22)"/>
</clipPath>
<clipPath id="clip3_1_431">
<rect width="26" height="26" fill="white" transform="translate(46 22)"/>
</clipPath>
</defs>
</svg>
