<svg width="118" height="90" viewBox="0 0 118 90" fill="none" xmlns="http://www.w3.org/2000/svg">
<g filter="url(#filter0_d_1_415)">
<g clip-path="url(#clip0_1_415)">
<rect x="18" y="8" width="82" height="54" rx="27" fill="url(#paint0_linear_1_415)"/>
<g clip-path="url(#clip1_1_415)">
<g clip-path="url(#clip2_1_415)">
<g clip-path="url(#clip3_1_415)">
<mask id="mask0_1_415" style="mask-type:luminance" maskUnits="userSpaceOnUse" x="46" y="22" width="26" height="26">
<path d="M46 22H72V48H46V22Z" fill="white"/>
</mask>
<g mask="url(#mask0_1_415)">
<path fill-rule="evenodd" clip-rule="evenodd" d="M70.78 29.343C70.5317 29.4321 70.2633 29.4488 70.0059 29.3913C69.7485 29.3337 69.5127 29.2043 69.326 29.018L68.3 27.991L60.506 35.786C60.3766 35.9154 60.2231 36.018 60.0541 36.088C59.8851 36.158 59.7039 36.194 59.521 36.194C59.3381 36.194 59.1569 36.158 58.9879 36.088C58.8189 36.018 58.6654 35.9154 58.536 35.786L55.562 32.812L48.479 39.895C48.3496 40.0243 48.1961 40.1267 48.0272 40.1966C47.8582 40.2665 47.6771 40.3024 47.4943 40.3023C47.3115 40.3022 47.1304 40.2661 46.9615 40.1961C46.7927 40.126 46.6392 40.0234 46.51 39.894C46.3808 39.7647 46.2783 39.6111 46.2084 39.4422C46.1385 39.2732 46.1026 39.0922 46.1027 38.9093C46.1028 38.7265 46.1389 38.5455 46.209 38.3766C46.279 38.2077 46.3816 38.0543 46.511 37.925L54.574 29.855C54.7034 29.7257 54.8569 29.6231 55.0259 29.5531C55.1949 29.4831 55.3761 29.447 55.559 29.447C55.7419 29.447 55.9231 29.4831 56.0921 29.5531C56.2611 29.6231 56.4146 29.7257 56.544 29.855L59.52 32.831L66.33 26.021L65.305 24.995C65.1189 24.8084 64.9896 24.5728 64.932 24.3156C64.8744 24.0584 64.8909 23.7902 64.9796 23.542C65.0682 23.2938 65.2254 23.0758 65.433 22.9134C65.6405 22.7509 65.8898 22.6506 66.152 22.624C67.847 22.457 68.822 22.457 70.455 22.624C70.7735 22.6571 71.0708 22.7988 71.297 23.0254C71.5232 23.252 71.6645 23.5495 71.697 23.868C71.867 25.498 71.864 26.476 71.697 28.169C71.6709 28.4314 71.5709 28.6811 71.4086 28.8889C71.2463 29.0967 71.0283 29.2542 70.78 29.343ZM67.766 32.143C67.9765 31.9393 68.2459 31.8071 68.5358 31.7653C68.8258 31.7235 69.1215 31.7741 69.381 31.91L71.186 32.857C71.4196 32.9798 71.6134 33.1665 71.745 33.3952C71.8765 33.624 71.9404 33.8854 71.929 34.149L71.417 46.384C71.402 46.7433 71.2487 47.0829 70.989 47.3317C70.7294 47.5806 70.3836 47.7193 70.024 47.719H66.362C66.2388 47.719 66.1207 47.6702 66.0335 47.5832C65.9464 47.4962 65.8973 47.3782 65.897 47.255V34.151C65.897 34.0887 65.9095 34.0269 65.9339 33.9695C65.9583 33.9121 65.9941 33.8603 66.039 33.817L67.766 32.144V32.143ZM63.576 47.255C63.5761 47.316 63.5642 47.3765 63.541 47.4329C63.5177 47.4893 63.4836 47.5406 63.4405 47.5838C63.3974 47.627 63.3462 47.6612 63.2898 47.6846C63.2334 47.708 63.173 47.72 63.112 47.72H56.147C56.0238 47.7198 55.9058 47.6707 55.8188 47.5835C55.7319 47.4963 55.683 47.3782 55.683 47.255V36.458C55.683 36.421 55.711 36.391 55.748 36.395C56.051 36.409 56.348 36.525 56.593 36.738L59.648 39.42C59.7356 39.4973 59.8492 39.5387 59.9659 39.5359C60.0827 39.5331 60.1942 39.4864 60.278 39.405L62.788 36.968C62.8535 36.9041 62.9365 36.861 63.0264 36.8441C63.1164 36.8272 63.2093 36.8373 63.2935 36.8732C63.3778 36.909 63.4495 36.9689 63.4998 37.0454C63.55 37.1219 63.5766 37.2115 63.576 37.303V47.255ZM52.565 38.967L46.789 44.865C46.534 45.125 46.39 45.475 46.389 45.84V46.327C46.389 47.095 47.014 47.719 47.783 47.719H52.897C53.0202 47.719 53.1383 47.6702 53.2255 47.5832C53.3126 47.4962 53.3617 47.3782 53.362 47.255V39.292C53.3624 39.1995 53.3351 39.109 53.2836 39.0321C53.2322 38.9552 53.1589 38.8954 53.0732 38.8605C52.9875 38.8256 52.8934 38.817 52.8028 38.836C52.7122 38.855 52.6294 38.9006 52.565 38.967Z" fill="url(#paint1_linear_1_415)"/>
</g>
</g>
</g>
</g>
<rect x="18.5" y="8.5" width="81" height="53" rx="26.5" stroke="#04558F"/>
</g>
</g>
<defs>
<filter id="filter0_d_1_415" x="0" y="0" width="118" height="90" filterUnits="userSpaceOnUse" color-interpolation-filters="sRGB">
<feFlood flood-opacity="0" result="BackgroundImageFix"/>
<feColorMatrix in="SourceAlpha" type="matrix" values="0 0 0 0 0 0 0 0 0 0 0 0 0 0 0 0 0 0 127 0" result="hardAlpha"/>
<feOffset dy="10"/>
<feGaussianBlur stdDeviation="9"/>
<feComposite in2="hardAlpha" operator="out"/>
<feColorMatrix type="matrix" values="0 0 0 0 1 0 0 0 0 0.266667 0 0 0 0 0 0 0 0 0.3 0"/>
<feBlend mode="normal" in2="BackgroundImageFix" result="effect1_dropShadow_1_415"/>
<feBlend mode="normal" in="SourceGraphic" in2="effect1_dropShadow_1_415" result="shape"/>
</filter>
<linearGradient id="paint0_linear_1_415" x1="59" y1="8" x2="59" y2="62" gradientUnits="userSpaceOnUse">
<stop stop-color="#04558F"/>
<stop offset="0.496089" stop-color="#04558F"/>
<stop offset="0.605769" stop-color="#04558F"/>
<stop offset="0.631318" stop-color="#04558F"/>
<stop offset="1" stop-color="#04558F"/>
</linearGradient>
<linearGradient id="paint1_linear_1_415" x1="59.008" y1="22.499" x2="59.008" y2="47.72" gradientUnits="userSpaceOnUse">
<stop stop-color="white"/>
<stop offset="1" stop-color="white" stop-opacity="0.2"/>
</linearGradient>
<clipPath id="clip0_1_415">
<rect x="18" y="8" width="82" height="54" rx="27" fill="white"/>
</clipPath>
<clipPath id="clip1_1_415">
<rect width="26" height="26" fill="white" transform="translate(46 22)"/>
</clipPath>
<clipPath id="clip2_1_415">
<rect width="26" height="26" fill="white" transform="translate(46 22)"/>
</clipPath>
<clipPath id="clip3_1_415">
<rect width="26" height="26" fill="white" transform="translate(46 22)"/>
</clipPath>
</defs>
</svg>
