<svg width="112" height="24" viewBox="0 0 112 24" fill="none" xmlns="http://www.w3.org/2000/svg">
<g clip-path="url(#clip0_1_669)">
<g clip-path="url(#clip1_1_669)">
<path d="M20.1328 19.8478L14.2641 10.6247L20.055 4.25438C20.186 4.10674 20.2535 3.91343 20.2429 3.71636C20.2323 3.51929 20.1444 3.33435 19.9984 3.20161C19.8523 3.06888 19.6598 2.99907 19.4626 3.00731C19.2655 3.01555 19.0795 3.10117 18.945 3.24562L13.4287 9.31312L9.63281 3.34781C9.56512 3.24127 9.47164 3.15353 9.36102 3.09274C9.2504 3.03194 9.12622 3.00004 9 3H4.5C4.36552 2.99993 4.23351 3.03603 4.11777 3.10449C4.00203 3.17296 3.90683 3.27129 3.84213 3.38918C3.77744 3.50707 3.74563 3.64018 3.75004 3.77458C3.75444 3.90898 3.79491 4.03973 3.86719 4.15313L9.73594 13.3753L3.945 19.7503C3.87737 19.823 3.82484 19.9083 3.79044 20.0014C3.75604 20.0945 3.74046 20.1935 3.7446 20.2927C3.74875 20.3918 3.77253 20.4892 3.81457 20.5791C3.85662 20.669 3.91609 20.7496 3.98954 20.8164C4.06299 20.8831 4.14895 20.9346 4.24246 20.9679C4.33596 21.0012 4.43514 21.0156 4.53424 21.0103C4.63335 21.0049 4.73041 20.98 4.8198 20.9369C4.90919 20.8937 4.98913 20.8333 5.055 20.7591L10.5712 14.6916L14.3672 20.6569C14.4354 20.7625 14.5292 20.8494 14.6397 20.9093C14.7503 20.9693 14.8742 21.0005 15 21H19.5C19.6343 21 19.7662 20.9638 19.8818 20.8954C19.9974 20.827 20.0925 20.7288 20.1571 20.611C20.2218 20.4933 20.2537 20.3604 20.2494 20.2261C20.2451 20.0918 20.2048 19.9612 20.1328 19.8478ZM15.4116 19.5L5.86594 4.5H8.58469L18.1341 19.5H15.4116Z" fill="white"/>
</g>
</g>
<g clip-path="url(#clip2_1_669)">
<g clip-path="url(#clip3_1_669)">
<path d="M56 7.5C55.11 7.5 54.24 7.76392 53.4999 8.25839C52.7599 8.75285 52.1831 9.45566 51.8425 10.2779C51.5019 11.1002 51.4128 12.005 51.5865 12.8779C51.7601 13.7508 52.1887 14.5526 52.818 15.182C53.4474 15.8113 54.2492 16.2399 55.1221 16.4135C55.995 16.5872 56.8998 16.4981 57.7221 16.1575C58.5443 15.8169 59.2471 15.2401 59.7416 14.5001C60.2361 13.76 60.5 12.89 60.5 12C60.4988 10.8069 60.0243 9.66303 59.1806 8.81939C58.337 7.97575 57.1931 7.50124 56 7.5ZM56 15C55.4067 15 54.8266 14.8241 54.3333 14.4944C53.8399 14.1648 53.4554 13.6962 53.2284 13.1481C53.0013 12.5999 52.9419 11.9967 53.0576 11.4147C53.1734 10.8328 53.4591 10.2982 53.8787 9.87868C54.2982 9.45912 54.8328 9.1734 55.4147 9.05764C55.9967 8.94189 56.5999 9.0013 57.1481 9.22836C57.6962 9.45542 58.1648 9.83994 58.4944 10.3333C58.8241 10.8266 59 11.4067 59 12C59 12.7956 58.6839 13.5587 58.1213 14.1213C57.5587 14.6839 56.7956 15 56 15ZM60.5 2.25H51.5C50.1081 2.25149 48.7736 2.80509 47.7893 3.78933C46.8051 4.77358 46.2515 6.10807 46.25 7.5V16.5C46.2515 17.8919 46.8051 19.2264 47.7893 20.2107C48.7736 21.1949 50.1081 21.7485 51.5 21.75H60.5C61.8919 21.7485 63.2264 21.1949 64.2107 20.2107C65.1949 19.2264 65.7485 17.8919 65.75 16.5V7.5C65.7485 6.10807 65.1949 4.77358 64.2107 3.78933C63.2264 2.80509 61.8919 2.25149 60.5 2.25ZM64.25 16.5C64.25 17.4946 63.8549 18.4484 63.1516 19.1516C62.4484 19.8549 61.4946 20.25 60.5 20.25H51.5C50.5054 20.25 49.5516 19.8549 48.8483 19.1516C48.1451 18.4484 47.75 17.4946 47.75 16.5V7.5C47.75 6.50544 48.1451 5.55161 48.8483 4.84835C49.5516 4.14509 50.5054 3.75 51.5 3.75H60.5C61.4946 3.75 62.4484 4.14509 63.1516 4.84835C63.8549 5.55161 64.25 6.50544 64.25 7.5V16.5ZM62 7.125C62 7.3475 61.934 7.56501 61.8104 7.75002C61.6868 7.93502 61.5111 8.07922 61.3055 8.16436C61.1 8.24951 60.8738 8.27179 60.6555 8.22838C60.4373 8.18498 60.2368 8.07783 60.0795 7.9205C59.9222 7.76316 59.815 7.56271 59.7716 7.34448C59.7282 7.12625 59.7505 6.90005 59.8356 6.69448C59.9208 6.48891 60.065 6.31321 60.25 6.1896C60.435 6.06598 60.6525 6 60.875 6C61.1734 6 61.4595 6.11853 61.6705 6.3295C61.8815 6.54048 62 6.82663 62 7.125Z" fill="white"/>
</g>
</g>
<g clip-path="url(#clip4_1_669)">
<g clip-path="url(#clip5_1_669)">
<path d="M94.75 6C93.5633 6 92.4033 6.35189 91.4166 7.01118C90.4299 7.67047 89.6608 8.60754 89.2067 9.7039C88.7526 10.8003 88.6338 12.0067 88.8653 13.1705C89.0968 14.3344 89.6682 15.4035 90.5074 16.2426C91.3465 17.0818 92.4156 17.6532 93.5795 17.8847C94.7433 18.1162 95.9497 17.9974 97.0461 17.5433C98.1425 17.0892 99.0795 16.3201 99.7388 15.3334C100.398 14.3467 100.75 13.1867 100.75 12C100.748 10.4092 100.116 8.88412 98.9907 7.75928C97.8659 6.63444 96.3408 6.00174 94.75 6ZM94.75 16.5C93.86 16.5 92.99 16.2361 92.2499 15.7416C91.5099 15.2471 90.9331 14.5443 90.5925 13.7221C90.2519 12.8998 90.1628 11.995 90.3365 11.1221C90.5101 10.2492 90.9387 9.44736 91.568 8.81802C92.1974 8.18868 92.9992 7.7601 93.8721 7.58647C94.745 7.41283 95.6498 7.50195 96.4721 7.84254C97.2943 8.18314 97.9971 8.75991 98.4916 9.49993C98.9861 10.24 99.25 11.11 99.25 12C99.2488 13.1931 98.7743 14.337 97.9306 15.1806C97.087 16.0243 95.9431 16.4988 94.75 16.5ZM105.25 6C104.718 6 103.713 6.25875 102.97 7.99219C102.506 9.075 102.25 10.5 102.25 12C102.25 13.5 102.506 14.925 102.97 16.0078C103.713 17.7413 104.718 18 105.25 18C105.783 18 106.788 17.7413 107.53 16.0078C107.994 14.925 108.25 13.5 108.25 12C108.25 10.5 107.994 9.075 107.53 7.99219C106.788 6.25875 105.783 6 105.25 6ZM105.25 16.5C104.721 16.5 103.75 14.7919 103.75 12C103.75 9.20812 104.721 7.5 105.25 7.5C105.779 7.5 106.75 9.20812 106.75 12C106.75 14.7919 105.779 16.5 105.25 16.5ZM111.25 6.75V17.25C111.25 17.4489 111.171 17.6397 111.03 17.7803C110.89 17.921 110.699 18 110.5 18C110.301 18 110.11 17.921 109.97 17.7803C109.829 17.6397 109.75 17.4489 109.75 17.25V6.75C109.75 6.55109 109.829 6.36032 109.97 6.21967C110.11 6.07902 110.301 6 110.5 6C110.699 6 110.89 6.07902 111.03 6.21967C111.171 6.36032 111.25 6.55109 111.25 6.75Z" fill="white"/>
</g>
</g>
<defs>
<clipPath id="clip0_1_669">
<rect width="24" height="24" fill="white"/>
</clipPath>
<clipPath id="clip1_1_669">
<rect width="24" height="24" fill="white"/>
</clipPath>
<clipPath id="clip2_1_669">
<rect width="24" height="24" fill="white" transform="translate(44)"/>
</clipPath>
<clipPath id="clip3_1_669">
<rect width="24" height="24" fill="white" transform="translate(44)"/>
</clipPath>
<clipPath id="clip4_1_669">
<rect width="24" height="24" fill="white" transform="translate(88)"/>
</clipPath>
<clipPath id="clip5_1_669">
<rect width="24" height="24" fill="white" transform="translate(88)"/>
</clipPath>
</defs>
</svg>
